Simulation
nRows=31
nColumns=15
endheader
time  TH_x TH_y TH_z SC_y  SC_z  SC_x  AC_y  AC_z  AC_x  GH_y  GH_z  GH_yy  EL_x  PS_y
1.9499999999999993  0.000000  0.000000  0.000000  -29.561050158781047  11.335075101096251  24.32533067072765  61.7616485607656  11.800365070274244  2.287515832628331  47.96350862247716  57.772973889366156  -44.812445976333244  22.358518693643695  0.000000
1.9889999999999992  0.000000  0.000000  0.000000  -29.172972681597997  10.953948825487123  23.89822440774231  61.5686746701466  11.472230239130019  1.4173048478518357  48.30597240258113  56.91077397614075  -44.285467534625184  22.571252833146936  0.000000
2.027999999999999  0.000000  0.000000  0.000000  -28.745414509939156  10.520392295563335  23.43964442647882  61.37793527846587  11.109905752493814  0.4783046928546524  48.69402180502706  55.94320977336973  -43.822415677990065  22.775359608724767  0.000000
2.0669999999999993  0.000000  0.000000  0.000000  -28.27747842419134  10.039046440147954  22.939453102210756  61.17608182397537  10.715493583513302  -0.5053315140306179  49.12778116191519  54.8794526691596  -43.42871462653285  22.959103340460263  0.000000
2.1059999999999994  0.000000  0.000000  0.000000  -27.78645865364008  9.521539290169057  22.399809675886853  60.97278942548308  10.30272997421661  -1.5152281986010976  49.592848569658216  53.73983690580221  -43.06563393006378  23.109515374075823  0.000000
2.144999999999999  0.000000  0.000000  0.000000  -27.26900255583374  8.975674924671281  21.803113738606463  60.747509756404675  9.87826261998934  -2.528012562280298  50.04976803761765  52.540563878372694  -42.64491314790756  23.220335164445352  0.000000
2.1839999999999993  0.000000  0.000000  0.000000  -26.74972496744173  8.412136625470483  21.14448627005838  60.51366683399378  9.457835780208734  -3.5230518032605582  50.47122052630961  51.30627771799766  -42.11524619157376  23.290129329992602  0.000000
2.2229999999999994  0.000000  0.000000  0.000000  -26.243902480718283  7.829032742637652  20.39335764549007  60.275834355177935  9.04954412515228  -4.467398388529428  50.81067549762912  50.05640141297628  -41.43521219382571  23.327343432125353  0.000000
2.261999999999999  0.000000  0.000000  0.000000  -25.79104443955032  7.233895811463155  19.536065785267  60.05638402723721  8.663754889674738  -5.335941442788193  51.05284618678496  48.81517765254937  -40.61196053781197  23.351523893833605  0.000000
2.3009999999999993  0.000000  0.000000  0.000000  -25.427828633513386  6.62917425924987  18.52840309673084  59.87414457730968  8.307348927716044  -6.072912807255319  51.1504984370969  47.58920481189005  -39.63412019970077  23.378901803254738  0.000000
2.339999999999999  0.000000  0.000000  0.000000  -25.185144927843588  6.022748589063755  17.362107625219107  59.74153023562378  7.99345124255268  -6.656622803257153  51.0899905632019  46.378507552262555  -38.488406229548055  23.43178404527031  0.000000
2.378999999999999  0.000000  0.000000  0.000000  -25.0556102203584  5.425869737515822  16.012861654611186  59.62872715851786  7.739273023366817  -7.056587771977748  50.84303971271713  45.16073059658316  -37.116286003371606  23.52992621493318  0.000000
2.4179999999999993  0.000000  0.000000  0.000000  -25.038047787861654  4.847690380217312  14.496600003229052  59.53541645819935  7.561582866871327  -7.269755920649952  50.39031262972404  43.910683466374046  -35.46060341697917  23.687044403023723  0.000000
2.456999999999999  0.000000  0.000000  0.000000  -25.092935734949958  4.300395050136488  12.826204397683783  59.40771969041623  7.460738373191152  -7.309410544521296  49.716381363603375  42.61159767105026  -33.47304504004824  23.92154384651141  0.000000
2.495999999999999  0.000000  0.000000  0.000000  -25.208143120485886  3.789285741435113  11.035098865847559  59.251620124064964  7.445577642814893  -7.19221297893732  48.79552167391424  41.247543870498944  -31.12474935658471  24.239906719283955  0.000000
2.5349999999999993  0.000000  0.000000  0.000000  -25.358571667334648  3.3088645183673258  9.167211422242081  59.037530038621135  7.4979253050004075  -6.9615287300924855  47.62288264871301  39.82633391982138  -28.4407927223116  24.648642525995275  0.000000
2.573999999999999  0.000000  0.000000  0.000000  -25.53938071414757  2.858319317815176  7.260532194930982  58.78403593112454  7.614688883445192  -6.639889492986243  46.18554944336175  38.353890527190856  -25.454095998668144  25.138099048406882  0.000000
2.612999999999999  0.000000  0.000000  0.000000  -25.734436702748365  2.4269712098609793  5.369117758225297  58.48491215556263  7.773117019652921  -6.2717176477670185  44.505515644997764  36.84457901461291  -22.25280462007449  25.682979115787045  0.000000
2.6519999999999992  0.000000  0.000000  0.000000  -25.944497664141245  2.0096792724663546  3.5308809943949453  58.166465189575455  7.961982097048805  -5.879943859389999  42.609450815796784  35.31166524394902  -18.923719929778972  26.242874060826335  0.000000
2.690999999999999  0.000000  0.000000  0.000000  -26.1569161587984  1.6003955541438395  1.7930882138531365  57.82567955421458  8.164507957957854  -5.504284743562153  40.56915445889162  33.7620121755848  -15.591304987378015  26.769211858306743  0.000000
2.729999999999999  0.000000  0.000000  0.000000  -26.3791215205145  1.194701800282725  0.19502896808465997  57.48194487464977  8.367494250509262  -5.172714844186654  38.451431611001055  32.197823363641845  -12.349572195760027  27.221471252992878  0.000000
2.768999999999999  0.000000  0.000000  0.000000  -26.60412770521003  0.7890340895625819  -1.2217802343211208  57.114301750100545  8.561862095590975  -4.936287197572936  36.371406726707356  30.62150939341699  -9.306291479325436  27.56909296832545  0.000000
2.807999999999999  0.000000  0.000000  0.000000  -26.843262594339286  0.38362702785127506  -2.415991286874305  56.729139302190056  8.733870623661213  -4.828850084540776  34.40937580906594  29.02434042484251  -6.518846202956382  27.79603747326981  0.000000
2.846999999999999  0.000000  0.000000  0.000000  -27.08879652143388  -0.024315620436312822  -3.3524971339455325  56.292627717512026  8.867438995207484  -4.906134639185376  32.681259458578964  27.416041405779744  -4.057252546291466  27.89067070562838  0.000000
2.885999999999999  0.000000  0.000000  0.000000  -27.346694189422248  -0.4313594627435937  -3.9989424013369312  55.80596407141979  8.947915308675256  -5.196414702574287  31.25756078714554  25.78811903602236  -1.9512172541830397  27.850004768055086  0.000000
2.924999999999999  0.000000  0.000000  0.000000  -27.600604102584274  -0.809778032284899  -4.339112334201111  55.23199973737047  8.93212616443668  -5.714800064460517  30.200003571351683  24.158270907590747  -0.22900177684782505  27.683089109393304  0.000000
2.963999999999999  0.000000  0.000000  0.000000  -27.844810937026885  -1.1453492115680148  -4.364383057985197  54.568523554243214  8.816209221134105  -6.472568400327336  29.52489610120924  22.519402877301122  1.1122449726971853  27.41415135774328  0.000000
3.002999999999999  0.000000  0.000000  0.000000  -28.01388582040507  -1.4509379686745085  -4.091345653248986  53.797729949220205  8.617584480659  -7.481601136015127  29.147881450354532  20.86895248650358  2.129180210913645  27.07346369257429  0.000000
3.041999999999999  0.000000  0.000000  0.000000  -28.094962718591585  -1.6808043733693014  -3.5668728328387185  52.935998711256914  8.377479759389475  -8.708940415129343  29.149548612752334  19.21055108239368  2.7180929081856315  26.78987448189234  0.000000
3.080999999999999  0.000000  0.000000  0.000000  -28.240200564853414  -1.7085484374062054  -2.856592695939188  52.45152723577185  7.932344925955036  -9.736804585121181  28.68559824059687  17.567639244489037  3.577475190078532  26.532411958304387  0.000000
3.1199999999999988  0.000000  0.000000  0.000000  -28.52679005914756  -1.5939351404743687  -2.0702956364388636  52.50452601108188  7.273396778994874  -10.198262870085935  26.99492483576748  15.93859476982598  5.355957993618305  26.257736166550384  0.000000
